<svg xmlns="http://www.w3.org/2000/svg" width="822" height="694.944" data-name="Layer 1"><path fill="#f0f0f0" d="m736.99 649.698-13.825 12.727 10.987-18.435c-8.656-15.696-22.812-29.262-22.812-29.262s-29.37 28.138-29.37 50.257 13.15 29.841 29.37 29.841 29.369-7.723 29.369-29.841a38.8 38.8 0 0 0-3.72-15.287Z"/><path fill="#fff" d="M719.61 663.114v1.09c-.065 12.673-2.202 22.56-6.396 29.523-.059.102-.124.2-.183.302l-.47-.286-.448-.28c4.653-7.519 6.3-18.146 6.358-29.2.006-.356.011-.718.006-1.08-.016-4.679-.302-9.412-.761-14.01-.033-.357-.07-.718-.108-1.08-.637-6.067-1.555-11.863-2.494-16.899a61.685 61.685 0 0 0-.205-1.063c-1.624-8.517-3.281-14.686-3.66-16.052-.042-.167-.07-.259-.075-.28l.513-.146.005-.005.519-.146c.005.022.097.33.248.901.577 2.138 2.078 7.94 3.551 15.593.065.345.135.702.2 1.058a220.061 220.061 0 0 1 2.11 13.444q.227 1.806.405 3.563c.043.361.081.723.113 1.08q.745 7.455.772 13.973Z"/><path fill="#fff" d="M716.01 629.996c-.361.049-.728.097-1.1.135a29.775 29.775 0 0 1-3.045.156 28.964 28.964 0 0 1-12.521-2.828l-.686.864a30.036 30.036 0 0 0 13.207 3.044 30.808 30.808 0 0 0 3.25-.173c.366-.038.733-.086 1.095-.14a29.784 29.784 0 0 0 8.609-2.607q-.348-.445-.68-.874a28.865 28.865 0 0 1-8.129 2.423ZM718.725 648.06q-.559.033-1.117.033c-.113.005-.232.005-.346.005a29.117 29.117 0 0 1-23.899-12.483c-.216.318-.431.636-.642.96a30.198 30.198 0 0 0 24.541 12.603c.152 0 .303 0 .454-.006.378-.005.75-.016 1.122-.032a30.039 30.039 0 0 0 16.003-5.613c-.172-.319-.345-.637-.523-.955a28.917 28.917 0 0 1-15.593 5.489Z"/><path fill="#fff" d="M719.61 663.114a30.425 30.425 0 0 1-2.348.097 29.196 29.196 0 0 1-27.99-21.006c-.243.437-.486.869-.718 1.306a30.265 30.265 0 0 0 28.708 20.78c.405 0 .81-.006 1.21-.028.383-.01.76-.032 1.138-.06a30.177 30.177 0 0 0 19.916-9.72c-.113-.399-.243-.793-.372-1.192a29.102 29.102 0 0 1-19.544 9.823Z"/><path fill="#f0f0f0" d="m621.392 171.587.58-11.034 2.96 12.267c10.092 3.04 21.621 2.924 21.621 2.924s.78-23.905-8.314-33.204-17.797-7.14-24.617-.472c-6.82 6.669-9.173 15.322-.079 24.621a22.816 22.816 0 0 0 7.849 4.898Z"/><path fill="#fff" d="m623.183 158.802-.448-.459c-5.183-5.355-8.35-10.39-9.449-15.042-.017-.068-.03-.135-.047-.203l.315-.072.304-.066c1.135 5.073 4.812 10.218 9.331 14.89.144.152.29.306.442.456a86.52 86.52 0 0 0 6.08 5.578c.16.136.325.273.49.41a127.058 127.058 0 0 0 8.519 6.442c4.185 2.913 7.417 4.825 8.138 5.244.087.053.136.08.147.087l-.156.272v.005l-.158.274c-.01-.007-.176-.099-.475-.277a132.937 132.937 0 0 1-7.904-5.096l-.518-.362a129.389 129.389 0 0 1-6.415-4.785q-.838-.666-1.635-1.332c-.167-.134-.331-.27-.491-.407q-3.38-2.828-6.07-5.557Z"/><path fill="#fff" d="M638.312 171.245c.133-.169.267-.34.408-.509a17.509 17.509 0 0 1 1.215-1.317 17.032 17.032 0 0 1 6.428-3.96l-.067-.644a17.663 17.663 0 0 0-6.804 4.15 18.117 18.117 0 0 0-1.295 1.408c-.14.167-.274.338-.403.51a17.514 17.514 0 0 0-2.548 4.635q.33.044.645.088a16.973 16.973 0 0 1 2.421-4.36ZM629.744 164.766q.222-.243.456-.473c.046-.048.096-.097.143-.144a17.122 17.122 0 0 1 15.181-4.577c-.04-.222-.08-.445-.125-.668a17.758 17.758 0 0 0-15.5 4.791 22.63 22.63 0 0 0-.647.664 17.664 17.664 0 0 0-4.42 8.94c.204.062.407.125.613.186a17.005 17.005 0 0 1 4.299-8.719Z"/><path fill="#fff" d="M623.183 158.802a17.887 17.887 0 0 1 .947-1.006 17.169 17.169 0 0 1 20.405-2.677c-.078-.283-.153-.565-.235-.844a17.797 17.797 0 0 0-20.614 3.067c-.17.166-.338.335-.497.508a15.5 15.5 0 0 0-.454.493 17.745 17.745 0 0 0-4.377 12.275c.212.121.428.234.647.349a17.113 17.113 0 0 1 4.178-12.165Z"/><path fill="#f0f0f0" d="m202.153 253.587.58-11.034 2.96 12.267c10.092 3.04 21.621 2.924 21.621 2.924s.78-23.905-8.314-33.204-17.797-7.14-24.617-.472c-6.82 6.669-9.173 15.322-.079 24.621a22.816 22.816 0 0 0 7.849 4.898Z"/><path fill="#fff" d="m203.944 240.802-.448-.459c-5.183-5.355-8.35-10.39-9.45-15.042-.016-.068-.029-.135-.046-.203l.315-.072.304-.066c1.135 5.073 4.812 10.218 9.331 14.89.144.152.29.306.442.456a86.52 86.52 0 0 0 6.08 5.578c.16.136.325.273.49.41a127.06 127.06 0 0 0 8.519 6.442c4.185 2.913 7.417 4.825 8.138 5.244.087.053.136.08.147.087l-.156.272v.005l-.158.274c-.01-.007-.176-.099-.475-.277a132.936 132.936 0 0 1-7.904-5.096l-.518-.362a129.389 129.389 0 0 1-6.415-4.785q-.838-.666-1.635-1.332c-.167-.134-.331-.27-.491-.407q-3.38-2.828-6.07-5.557Z"/><path fill="#fff" d="M219.073 253.245c.133-.169.267-.34.408-.509a17.509 17.509 0 0 1 1.215-1.317 17.032 17.032 0 0 1 6.428-3.96l-.067-.644a17.663 17.663 0 0 0-6.804 4.15 18.117 18.117 0 0 0-1.295 1.408c-.14.167-.274.338-.403.51a17.514 17.514 0 0 0-2.548 4.635q.33.044.645.088a16.973 16.973 0 0 1 2.421-4.36ZM210.505 246.766q.222-.243.456-.473c.046-.048.096-.097.143-.144a17.122 17.122 0 0 1 15.181-4.577c-.04-.222-.08-.445-.125-.668a17.758 17.758 0 0 0-15.5 4.791c-.063.063-.126.125-.188.19a22.63 22.63 0 0 0-.458.474 17.664 17.664 0 0 0-4.42 8.94c.203.062.406.125.612.186a17.005 17.005 0 0 1 4.299-8.719Z"/><path fill="#fff" d="M203.944 240.802a17.874 17.874 0 0 1 .947-1.006 17.169 17.169 0 0 1 20.405-2.677c-.078-.283-.153-.565-.235-.844a17.797 17.797 0 0 0-20.614 3.067c-.17.166-.338.335-.497.508a15.5 15.5 0 0 0-.454.493 17.745 17.745 0 0 0-4.377 12.275c.212.121.428.234.647.349a17.113 17.113 0 0 1 4.178-12.165Z"/><path fill="#f0f0f0" d="m272.153 113.587.58-11.034 2.96 12.267c10.092 3.04 21.621 2.924 21.621 2.924s.78-23.905-8.314-33.204-17.797-7.14-24.617-.472c-6.82 6.669-9.173 15.322-.079 24.621a22.816 22.816 0 0 0 7.849 4.898Z"/><path fill="#fff" d="m273.944 100.802-.448-.459c-5.183-5.355-8.35-10.39-9.45-15.042-.016-.068-.029-.135-.046-.203l.315-.072.304-.066c1.135 5.073 4.812 10.218 9.331 14.89.144.152.29.306.442.456a86.52 86.52 0 0 0 6.08 5.578c.16.136.325.273.49.41a127.06 127.06 0 0 0 8.519 6.442c4.184 2.913 7.417 4.825 8.138 5.244.087.053.136.08.147.087l-.156.272v.005l-.158.274c-.01-.007-.176-.099-.475-.277a132.936 132.936 0 0 1-7.904-5.096l-.518-.362a129.389 129.389 0 0 1-6.415-4.785q-.838-.666-1.635-1.332c-.167-.134-.331-.27-.491-.407q-3.38-2.828-6.07-5.557Z"/><path fill="#fff" d="M289.073 113.245c.133-.169.267-.34.408-.509a17.509 17.509 0 0 1 1.215-1.317 17.032 17.032 0 0 1 6.428-3.96l-.067-.644a17.663 17.663 0 0 0-6.804 4.15 18.117 18.117 0 0 0-1.295 1.408c-.14.167-.274.338-.403.51a17.514 17.514 0 0 0-2.548 4.635q.33.044.645.088a16.973 16.973 0 0 1 2.421-4.36ZM280.505 106.766q.222-.243.456-.472c.046-.05.096-.098.143-.145a17.122 17.122 0 0 1 15.181-4.577c-.04-.222-.08-.445-.125-.668a17.758 17.758 0 0 0-15.5 4.791c-.063.063-.126.125-.188.19a22.63 22.63 0 0 0-.458.474 17.664 17.664 0 0 0-4.42 8.94c.203.062.406.125.612.186a17.005 17.005 0 0 1 4.299-8.719Z"/><path fill="#fff" d="M273.944 100.802a17.874 17.874 0 0 1 .947-1.006 17.169 17.169 0 0 1 20.405-2.677c-.078-.283-.153-.565-.235-.844a17.797 17.797 0 0 0-20.614 3.067c-.17.166-.338.335-.497.508a15.5 15.5 0 0 0-.454.493 17.745 17.745 0 0 0-4.377 12.275c.212.121.428.234.647.349a17.113 17.113 0 0 1 4.178-12.165Z"/><path fill="#f0f0f0" d="m112.674 615.648-23.948 22.047 19.032-31.934c-14.995-27.192-39.518-50.692-39.518-50.692s-50.878 48.745-50.878 87.062 22.779 51.695 50.878 51.695c28.098 0 50.877-13.379 50.877-51.695 0-8.529-2.524-17.573-6.443-26.483Z"/><path fill="#fff" d="M82.567 638.89v1.888c-.112 21.953-3.815 39.082-11.08 51.144-.103.177-.215.346-.318.523l-.813-.495-.776-.486c8.06-13.025 10.911-31.435 11.014-50.583.01-.618.019-1.244.01-1.87-.029-8.107-.524-16.307-1.319-24.273-.056-.617-.122-1.243-.187-1.87-1.103-10.51-2.693-20.551-4.32-29.274-.112-.618-.233-1.235-.355-1.842-2.814-14.755-5.685-25.442-6.34-27.807-.074-.29-.12-.449-.13-.486l.888-.253.01-.01.897-.252c.01.038.168.57.43 1.562 1 3.702 3.6 13.754 6.152 27.012.113.598.234 1.215.346 1.832 1.328 7.078 2.628 14.988 3.656 23.291q.393 3.128.701 6.171c.075.626.14 1.253.197 1.87q1.29 12.917 1.337 24.207Z"/><path fill="#fff" d="M76.33 581.518c-.626.084-1.262.168-1.907.234a51.58 51.58 0 0 1-5.273.27 50.175 50.175 0 0 1-21.692-4.899l-1.188 1.496a52.033 52.033 0 0 0 22.88 5.274 53.371 53.371 0 0 0 5.628-.3 42.13 42.13 0 0 0 1.898-.243 51.595 51.595 0 0 0 14.913-4.516q-.603-.77-1.178-1.514a50.003 50.003 0 0 1-14.08 4.198ZM81.033 612.812q-.967.056-1.935.056c-.196.01-.402.01-.598.01a50.441 50.441 0 0 1-41.402-21.627 102.61 102.61 0 0 0-1.113 1.664A52.314 52.314 0 0 0 78.5 614.748c.261 0 .523 0 .785-.01.654-.01 1.3-.028 1.945-.056a52.038 52.038 0 0 0 27.722-9.724c-.299-.551-.598-1.103-.907-1.655a50.095 50.095 0 0 1-27.012 9.51Z"/><path fill="#fff" d="M82.567 638.89a52.731 52.731 0 0 1-4.067.168 50.578 50.578 0 0 1-48.49-36.39c-.42.757-.84 1.505-1.243 2.262A52.43 52.43 0 0 0 78.5 640.927c.7 0 1.402-.009 2.094-.046a45.597 45.597 0 0 0 1.973-.103 52.276 52.276 0 0 0 34.501-16.84c-.196-.691-.42-1.374-.645-2.066a50.415 50.415 0 0 1-33.856 17.017Z"/><ellipse cx="888.11" cy="497.972" fill="#e4e4e4" rx="83.5" ry="43.5" transform="rotate(-41.187 657.177 698.21)"/><ellipse cx="341.11" cy="497.972" fill="#e4e4e4" rx="43.5" ry="83.5" transform="rotate(-48.813 133.635 654.968)"/><ellipse cx="293.11" cy="649.444" fill="#e4e4e4" rx="83.5" ry="43.5"/><ellipse cx="558.11" cy="649.444" fill="#e4e4e4" rx="83.5" ry="43.5"/><path fill="#3f3d56" d="M425.61 632.944c-113.037 0-205-91.962-205-205s91.963-205 205-205 205 91.963 205 205-91.962 205-205 205Zm0-408c-111.934 0-203 91.066-203 203s91.066 203 203 203 203-91.065 203-203-91.065-203-203-203Z"/><path fill="#f0f0f0" d="M375.637 564.485a180.457 180.457 0 0 1-118.18-206.323 180.427 180.427 0 1 0 338.279 116.369 180.457 180.457 0 0 1-220.1 89.954Z"/><path fill="#3f3d56" d="M365.232 411.608c-10.377 0-18.82-10.986-18.82-24.49s8.443-24.49 18.82-24.49 18.82 10.986 18.82 24.49-8.442 24.49-18.82 24.49ZM479.232 411.608c-10.377 0-18.82-10.986-18.82-24.49s8.443-24.49 18.82-24.49 18.82 10.986 18.82 24.49-8.442 24.49-18.82 24.49Z"/><ellipse cx="412.61" cy="22.944" fill="#2f2e41" rx="18" ry="13"/><ellipse cx="412.61" cy="7.944" fill="#2f2e41" rx="11" ry="7.944"/><path fill="#2f2e41" d="M399.666 28.139c-6.192-6.192-8.152-14.54-5.063-19.912a9.579 9.579 0 0 0-2.008 1.527c-5.077 5.077-3.494 14.891 3.535 21.92 7.03 7.03 16.844 8.613 21.92 3.536a9.578 9.578 0 0 0 1.528-2.008c-5.373 3.088-13.72 1.129-19.912-5.063Z"/><path fill="#ffb6b6" d="m227.324 349.912-6.322-10.504 37.506-29.385 9.331 15.502-40.515 24.387z"/><path fill="#2f2e41" d="M218.755 358.72 198.37 324.85l.428-.258a15.387 15.387 0 0 1 21.118 5.247v.001l12.451 20.686Z"/><path fill="#ffb6b6" d="m622.45 335.912 6.322-10.504-37.506-29.385-9.331 15.502 40.515 24.387z"/><path fill="#2f2e41" d="m617.407 336.527 12.452-20.686a15.387 15.387 0 0 1 21.118-5.248l.428.258-20.386 33.868ZM377.331 195.734l-2.388 9.536-64.43 51.579-69.34 64.801 7.437 17.294 165.277-110.619 186.331 96.586 8.325-19.065-85.03-56.997-70.319-48.492-75.863-4.623z"/><path fill="#9288ff" d="m399.026 93.708-27.848 9.137 3.765 101.44s48.432 29.08 78.251-3.928V98.894l-16.63-5.186Z"/><path fill="#9288ff" d="m447.013 105.869 6.181-6.975s17.185 6.278 15.752 25.116-11.533 78.756-11.533 78.756l-1.9 39.083h-17.94l7.15-101.074ZM379.013 108.869l-6.181-6.975s-17.185 6.278-15.752 25.116 11.533 78.756 11.533 78.756l1.9 39.083h17.94l-7.15-101.074Z"/><circle cx="379.61" cy="249.944" r="11" fill="#ffb6b6"/><circle cx="446.61" cy="249.944" r="11" fill="#ffb6b6"/><circle cx="412.146" cy="54.915" r="30.464" fill="#2f2e41"/><circle cx="413.064" cy="61.823" r="24.561" fill="#ffb6b6"/><path fill="#2f2e41" d="M387.256 46.374a33.405 33.405 0 0 0 19.09 5.9 20.47 20.47 0 0 1-8.113 3.338 67.359 67.359 0 0 0 27.514.155 17.807 17.807 0 0 0 5.76-1.978 7.29 7.29 0 0 0 3.555-4.755c.603-3.449-2.084-6.582-4.876-8.693a35.967 35.967 0 0 0-30.225-6.04c-3.376.873-6.758 2.347-8.951 5.059s-2.843 6.891-.753 9.683Z"/><path fill="#3f3d56" d="M821 694.944H1a1 1 0 0 1 0-2h820a1 1 0 0 1 0 2ZM394.61 507.944a28 28 0 1 0 56 0Z"/><circle cx="525.732" cy="448.944" r="24" fill="#f0f0f0"/><circle cx="318.732" cy="448.944" r="24" fill="#f0f0f0"/></svg>