<svg xmlns="http://www.w3.org/2000/svg" width="552.81" height="554"><path fill="#f2f2f2" d="M353.506 554H113.057c-26.067 0-47.275-21.208-47.275-47.276V47.276C65.782 21.208 86.99 0 113.057 0h240.45c26.067 0 47.275 21.208 47.275 47.276v459.448c0 26.068-21.208 47.276-47.276 47.276Z"/><path fill="#f2f2f2" d="M400.782 169c-1.103 0-2 .897-2 2v64c0 1.103.897 2 2 2s2-.897 2-2v-64c0-1.103-.897-2-2-2Z"/><path fill="#fff" d="M396.282 47.276v459.44c0 22.69-17.66 41.25-39.99 42.69h-.01c-.33.02-.66.04-1 .05-.59.03-1.18.04-1.78.04 0 0-2.2-.16-6.22-.46-4.06-.3-9.97-.75-17.34-1.34-2.21-.17-4.54-.36-7-.56-4.9-.4-10.28-.84-16.05-1.34-2.3-.19-4.68-.4-7.11-.61a3913.4 3913.4 0 0 1-41-3.74c-2.48-.23-4.98-.47-7.5-.72-.66-.07-1.33-.13-2-.2-10.46-1.03-21.21-2.14-32-3.32l-2-.21c-18.59-2.05-37.25-4.28-54.71-6.68-13.43-1.84-26.15-3.78-37.57-5.79-3.72-.66-7.3-1.32-10.72-1.99-.67-.13-1.34-.26-2-.4-24.17-4.84-40-10.06-40-15.42V47.276c0-23.63 19.15-42.78 42.78-42.78h25.54c4.08 0 7.36 3.18 7.71 7.25.03.27.06.54.11.81.74 4.09 4.49 6.94 8.65 6.94h156.42c4.16 0 7.91-2.85 8.65-6.94.05-.27.08-.54.11-.81.35-4.07 3.63-7.25 7.71-7.25h25.54c23.63 0 42.78 19.15 42.78 42.78Z"/><path fill="#f2f2f2" d="M64.782 121c-1.103 0-2 .897-2 2v16c0 1.103.897 2 2 2s2-.897 2-2v-16c0-1.103-.897-2-2-2ZM64.782 169c-1.103 0-2 .897-2 2v31c0 1.103.897 2 2 2s2-.897 2-2v-31c0-1.103-.897-2-2-2ZM64.782 213c-1.103 0-2 .897-2 2v31c0 1.103.897 2 2 2s2-.897 2-2v-31c0-1.103-.897-2-2-2Z"/><rect width="39" height="5" x="99.282" y="11.5" fill="#f2f2f2" rx="2" ry="2"/><circle cx="334.282" cy="12.5" r="4" fill="#f2f2f2"/><circle cx="345.282" cy="12.5" r="4" fill="#f2f2f2"/><circle cx="356.282" cy="12.5" r="4" fill="#f2f2f2"/><ellipse cx="118.691" cy="138.425" fill="#1a76ed" rx="19.409" ry="19"/><path fill="#e6e6e6" d="M274.284 131.925h-104.47c-3.585 0-6.5-2.916-6.5-6.5s2.915-6.5 6.5-6.5h104.47c3.584 0 6.5 2.916 6.5 6.5s-2.916 6.5-6.5 6.5Z"/><path fill="#f2f2f2" d="M106.337 351.878a3.027 3.027 0 0 0-3.024 3.023 3.027 3.027 0 0 0 3.024 3.024H215.76a3.028 3.028 0 0 0 3.024-3.024 3.028 3.028 0 0 0-3.024-3.023H106.337Z"/><path fill="#e6e6e6" d="M355.813 153.925h-186c-3.584 0-6.5-2.916-6.5-6.5s2.916-6.5 6.5-6.5h186c3.584 0 6.5 2.916 6.5 6.5s-2.916 6.5-6.5 6.5ZM143.532 61.925h-39.75c-2.757 0-5-2.243-5-5s2.243-5 5-5h39.75c2.757 0 5 2.244 5 5s-2.243 5-5 5Z"/><rect width="48.75" height="9" x="311.063" y="52.425" fill="#1a76ed" rx="4.5" ry="4.5"/><path fill="#e6e6e6" d="M298.313 61.925h-39.75c-2.757 0-5-2.243-5-5s2.243-5 5-5h39.75c2.757 0 5 2.244 5 5s-2.243 5-5 5Z"/><path fill="#f2f2f2" d="M149.282 337.193h-38c-6.893 0-12.5-5.607-12.5-12.5v-12.416c0-6.893 5.607-12.5 12.5-12.5h38c6.892 0 12.5 5.607 12.5 12.5v12.416c0 6.893-5.608 12.5-12.5 12.5Z"/><path fill="#1a76ed" d="M349.813 265.632H111.282c-6.893 0-12.5-5.607-12.5-12.5v-54.707c0-6.892 5.607-12.5 12.5-12.5h238.531c6.893 0 12.5 5.608 12.5 12.5v54.707c0 6.893-5.607 12.5-12.5 12.5Z"/><path fill="#f2f2f2" d="M348.282 337.193h-38c-6.893 0-12.5-5.607-12.5-12.5v-12.416c0-6.893 5.607-12.5 12.5-12.5h38c6.892 0 12.5 5.607 12.5 12.5v12.416c0 6.893-5.608 12.5-12.5 12.5ZM247.813 337.193h-38c-6.892 0-12.5-5.607-12.5-12.5v-12.416c0-6.893 5.608-12.5 12.5-12.5h38c6.893 0 12.5 5.607 12.5 12.5v12.416c0 6.893-5.607 12.5-12.5 12.5Z"/><g fill="#f2f2f2"><path d="M132.813 392.425h30v28h-30zM145.813 432.425h17v28h-17zM171.813 432.425h30v28h-30zM171.813 472.425h30v28h-30zM210.813 432.425h30v28h-30zM171.813 392.425h30v28h-30zM210.813 392.425h30v28h-30zM288.813 392.425h30v28h-30zM210.813 472.425h30v28h-30zM249.813 392.425h30v28h-30zM334.313 432.425h-19.5v28h19.5a5 5 0 0 0 5-5v-18a5 5 0 0 0-5-5ZM162.813 472.425h-6a5 5 0 0 0-5 5v18a5 5 0 0 0 5 5h6v-28ZM249.813 472.425h30v28h-30zM356.813 392.425h-29v28h29a5 5 0 0 0 5-5v-18a5 5 0 0 0-5-5ZM305.813 472.848a4.973 4.973 0 0 0-2-.423h-15v28h15c.713 0 1.387-.153 2-.422v-27.155ZM249.813 432.425h30v28h-30zM288.813 432.425h17v28h-17zM136.813 432.425h-10.5a5 5 0 0 0-5 5v18a5 5 0 0 0 5 5h10.5v-28ZM123.813 392.425h-20a5 5 0 0 0-5 5v18a5 5 0 0 0 5 5h20v-28Z"/></g><path fill="#ffb6b6" d="m316.825 542.98-8.909-.001-4.238-34.364 13.149.001-.002 34.364z"/><path fill="#2f2e41" d="M317.139 552.274h-27.397v-.347c0-5.89 4.774-10.663 10.664-10.664l5.005-3.796 9.337 3.797h2.391v11.01Z"/><path fill="#ffb6b6" d="m372.291 542.98-8.91-.001-4.238-34.364 13.149.001-.001 34.364z"/><path fill="#2f2e41" d="M372.604 552.274h-27.397v-.347c0-5.89 4.775-10.663 10.664-10.664l5.005-3.796 9.337 3.797h2.392v11.01ZM390.285 279.824H313.77l-9.288 28.694-2.241 122.024.393 95.215 17.425.066 15.346-102.35s-1.707-10.066 1.3-8.667-2.075-10.953 1.466-9.777 6.986-46.592 6.986-46.592l8.444 72.105 5.422 95.215h15.716l13.18-146.86s-4.14-8.888 1.327-14.79 4.905-54.665 4.905-54.665l-3.865-29.618Z"/><path fill="#3f3d56" d="M392.302 278.012s7.336 10.449.935 26.817c-10.637 27.204-81.205 4.324-85.526-12.624-6.64-2.292 4.428-5.643 1.17-11.202-.198-.34 1.83 7.202.223-1.142-2.58-13.394 1.848-54.541 1.848-54.541l1.463-24.42a101.886 101.886 0 0 1 27.195-63.4h36.744l15.948 25.883 1.652 64.876-1.652 49.753Z"/><path fill="#ffb6b6" d="m280.3 280.48 11.393-17.272 9.936 5.737-12.64 17.793c.04.686-.01 1.39-.162 2.095-.829 3.83-4.342 6.201-7.847 5.295-3.505-.906-5.674-4.746-4.844-8.577.528-2.443 2.15-4.287 4.164-5.07Z"/><path fill="#3f3d56" d="M334.227 143.046c-12.763 0-23.264 10.046-23.83 22.796l-2.438 54.93s-.018 3.05-1.147 2.146c-1.128-.903-1.224 2.292-1.224 2.292s-.05 4.886-1.115 2.089-1.21 2.264-1.21 2.264l-15.5 26.671c2.082 4.308.464 9.634-.052 13.971l11.146 10.259s-.098-3.08 2.305-3.028c14.728.318 29.807-39.464 29.553-54.178-.29-16.789 3.512-80.212 3.512-80.212Z"/><path fill="#ffb6b6" d="m339.463 66.624 11.393 17.272 9.936-5.737-12.64-17.793c.04-.686-.01-1.39-.162-2.095-.829-3.83-4.342-6.201-7.847-5.295-3.504.906-5.673 4.746-4.844 8.577.528 2.443 2.15 4.287 4.164 5.07Z"/><path fill="#3f3d56" d="M393.39 204.058c-12.763 0-23.264-10.046-23.83-22.796l-2.438-54.93s-.018-3.05-1.146-2.146c-1.13.903-1.225-2.292-1.225-2.292s-.05-4.886-1.115-2.09c-1.065 2.798-1.21-2.264-1.21-2.264l-20.27-37.95 1.151-4.951 11.093-8.32s4.483 1.427 5.925 3.349c7.274 9.697 29.284 40.166 29.553 54.178.323 16.788 3.512 80.212 3.512 80.212Z"/><path fill="#ffb6b6" d="M348.405 131.948c.543.125 1.087.234 1.63.317 1.689.276 3.378.36 5.025.26 5-.26 9.714-2.107 13.527-5.15 4.03-3.21 7.04-7.75 8.302-13.151 2.968-12.75-4.966-25.508-17.716-28.476-12.566-2.934-25.131 4.724-28.342 17.148-.05.192-.1.376-.142.568-2.968 12.758 4.958 25.507 17.716 28.484Z"/><path fill="#2f2e41" d="M378.121 116.626c-3.31 8.736-11.685 15.66-21.021 16.076-1.59.064-3.245-.056-4.65-.814-1.415-.749-2.505-2.255-2.385-3.845.25-3.134 4.51-4.336 5.713-7.248.795-1.923-.12-4.391-1.988-5.325-1.867-.924-4.39-.185-5.454 1.618 1.941-2.958.804-7.127-1.645-9.67-2.44-2.55-5.87-3.854-9.18-5.093l-.074-1.257c-2.339.897-4.89-.906-5.907-3.245 1.183-1.433 1.932-3.17 2.653-4.88a10.01 10.01 0 0 1-3.198 1.487c.064-2.033-2.986-3.004-2.469-5 .722-2.774 4.89-6.925 3.522-9.439 2.552.721 4.216 3.698 3.495 6.25.915-2.497 1.83-4.993 2.745-7.498.712 1.738 1.424 3.476 2.145 5.205 3.485-2.173 7.09-4.382 11.14-5.076 4.048-.702 8.707.481 10.972 3.92 2.357-1.433 5.52-.99 7.849.5 2.33 1.487 3.956 3.845 5.26 6.285 4.418 8.228 5.786 18.322 2.477 27.049Z"/><path fill="#f2f2f2" d="M498.551 536.626c2.066.13 3.208-2.437 1.645-3.933l-.155-.618.061-.149c2.09-4.981 9.17-4.947 11.242.042 1.838 4.428 4.18 8.864 4.755 13.546a18.029 18.029 0 0 1-.316 6.2c4.308-9.41 6.575-19.686 6.575-30.02 0-2.597-.142-5.193-.433-7.783a71.607 71.607 0 0 0-.994-6.31c-2.306-11.278-7.299-22.019-14.5-30.99-3.462-1.893-6.35-4.85-8.093-8.397-.627-1.279-1.118-2.654-1.35-4.056.394.052 1.485-5.948 1.188-6.317.55-.833 1.532-1.247 2.132-2.06 2.982-4.043 7.09-3.337 9.236 2.157 4.582 2.313 4.626 6.148 1.815 9.837-1.79 2.347-2.035 5.522-3.604 8.035.161.207.33.407.49.614a73.591 73.591 0 0 1 7.682 12.168c-.61-4.766.29-10.508 1.826-14.21 1.748-4.217 5.025-7.769 7.91-11.414 3.466-4.38 10.574-2.468 11.184 3.083l.018.161c-.429.242-.849.499-1.259.77-2.34 1.547-1.53 5.174 1.241 5.602l.063.01a30.628 30.628 0 0 1-.807 4.579c3.701 14.316-4.29 19.53-15.702 19.764-.252.13-.497.258-.75.381a73.187 73.187 0 0 1 2.765 9.979 73.856 73.856 0 0 1 1.28 9.049c.296 3.83.27 7.68-.053 11.503l.02-.136c.82-4.21 3.107-8.144 6.426-10.87 4.946-4.062 11.933-5.559 17.269-8.824 2.568-1.572 5.86.46 5.41 3.437l-.02.143c-.795.322-1.57.697-2.32 1.117-.428.242-.848.499-1.258.77-2.34 1.547-1.531 5.174 1.24 5.602l.064.01.129.019a30.655 30.655 0 0 1-5.639 8.829c-2.314 12.497-12.256 13.683-22.89 10.043h-.006a75.092 75.092 0 0 1-5.045 14.727h-18.02c-.065-.2-.123-.407-.181-.607 1.666.103 3.346.006 4.986-.297-1.337-1.641-2.674-3.295-4.01-4.935a1.12 1.12 0 0 1-.085-.097c-.678-.84-1.362-1.673-2.04-2.512l-.001-.001a29.99 29.99 0 0 1 .879-7.64Z"/><path fill="#ccc" d="M0 552.77c0 .66.53 1.19 1.19 1.19h550.29c.66 0 1.19-.53 1.19-1.19 0-.66-.53-1.19-1.19-1.19H1.19c-.66 0-1.19.53-1.19 1.19Z"/></svg>